Release Info:

General

Format                                   : Matroska
Format version                           : Version 2
File size                                : 692 MiB
Duration                                 : 1h 41mn
Overall bit rate mode                    : Variable
Overall bit rate                         : 954 Kbps


Video
ID                                       : 1
Format                                   : MPEG-4 Visual
Format profile                           : Advanced Simple@L5
Format settings, BVOP                    : Yes
Format settings, QPel                    : No
Format settings, GMC                     : No warppoints
Format settings, Matrix                  : Default (H.263)
Codec ID                                 : V_MS/VFW/FOURCC / XVID
Codec ID/Hint                            : XviD
Duration                                 : 1h 41mn
Bit rate                                 : 816 Kbps
Width                                    : 656 pixels
Height                                   : 368 pixels
Display aspect ratio                     : 16:9
Frame rate mode                          : Constant
Frame rate                               : 23.976 fps
Color space                              : YUV
Chroma subsampling                       : 4:2:0
Bit depth                                : 8 bits
Scan type                                : Progressive
Compression mode                         : Lossy
Bits/(Pixel*Frame)                       : 0.141
Stream size                              : 591 MiB (86%)
Writing library                          : XviD 1.2.1 (UTC 2008-12-04)
Language                                 : English
Default                                  : Yes
Forced                                   : No

Audio
ID                                       : 2
Format                                   : MPEG Audio
Format version                           : Version 1
Format profile                           : Layer 3
Mode                                     : Joint stereo
Mode extension                           : MS Stereo
Muxing mode                              : Header stripping
Codec ID                                 : A_MPEG/L3
Codec ID/Hint                            : MP3
Duration                                 : 1h 41mn
Bit rate mode                            : Variable
Bit rate                                 : 119 Kbps
Nominal bit rate                         : 128 Kbps
Channel(s)                               : 2 channels
Sampling rate                            : 48.0 KHz
Compression mode                         : Lossy
Stream size                              : 86.5 MiB (13%)
Writing library                          : LAME3.99r
Encoding settings                        : -m j -V 4 -q 2 -lowpass 17 --abr 128
Language                                 : English
Default                                  : Yes
Forced                                   : No

Source:
credit to original movie ripper S4A (Thanks)

IMDB Info:

When a family of raccoons discover worms living underneath the sod in Jeff and Nealy's backyard, this pest problem begins a darkly comic and wild chain reaction of domestic tension, infidelity and murder.

Director: Jacob Aaron Estes
Writer: Jacob Aaron Estes
Stars: Tobey Maguire, Elizabeth Banks and Laura Linney

Genres: Comedy
 
http://www.imdb.com/title/tt1433207/

Screen Shot:
 
http://www.shotpix.com/images/48434275329054518014.png 
http://www.shotpix.com/images/46996492699750721125.png 
http://www.shotpix.com/images/61061595688493761656.png 
http://www.shotpix.com/images/08338556690032266558.png 
http://www.shotpix.com/images/10390168396535028421.png 
http://www.shotpix.com/images/45859140020725788173.png